<svg width="32" height="32" viewBox="0 0 32 32" fill="none" xmlns="http://www.w3.org/2000/svg">
<path d="M5.33334 25.3333V22.6667H8.00001V13.3333C8.00001 11.4889 8.55557 9.85555 9.66668 8.43333C10.7778 6.98889 12.2222 6.04444 14 5.6V4.66667C14 4.11111 14.1889 3.64444 14.5667 3.26666C14.9667 2.86667 15.4445 2.66667 16 2.66667C16.5556 2.66667 17.0222 2.86667 17.4 3.26666C17.8 3.64444 18 4.11111 18 4.66667V5.6C19.7778 6.04444 21.2222 6.98889 22.3333 8.43333C23.4445 9.85555 24 11.4889 24 13.3333V22.6667H26.6667V25.3333H5.33334ZM16 29.3333C15.2667 29.3333 14.6333 29.0778 14.1 28.5667C13.5889 28.0333 13.3333 27.4 13.3333 26.6667H18.6667C18.6667 27.4 18.4 28.0333 17.8667 28.5667C17.3556 29.0778 16.7333 29.3333 16 29.3333ZM10.6667 22.6667H21.3333V13.3333C21.3333 11.8667 20.8111 10.6111 19.7667 9.56667C18.7222 8.52222 17.4667 8 16 8C14.5333 8 13.2778 8.52222 12.2333 9.56667C11.1889 10.6111 10.6667 11.8667 10.6667 13.3333V22.6667Z" fill="#FEF7FF"/>
</svg>
